<?xml version="1.0" encoding="UTF-8"?>
<svg xmlns="http://www.w3.org/2000/svg" xmlns:xlink="http://www.w3.org/1999/xlink" width="26px" height="32px" viewBox="0 0 26 31" version="1.1">
<g id="surface1">
<path style=" stroke:none;fill-rule:nonzero;fill:rgb(0%,0%,0%);fill-opacity:1;" d="M 0 15.5 L 0 31 L 5.363281 31 C 8.398438 30.996094 10.675781 30.992188 10.613281 30.984375 C 10.199219 30.9375 9.769531 30.777344 9.230469 30.464844 C 8.980469 30.324219 8.820312 30.171875 8.652344 29.914062 C 8.570312 29.785156 8.523438 29.683594 8.503906 29.59375 C 8.496094 29.535156 8.492188 29.53125 8.484375 29.558594 C 8.464844 29.613281 8.382812 29.628906 8.128906 29.628906 C 7.585938 29.625 7.050781 29.515625 6.746094 29.351562 C 6.6875 29.320312 6.53125 29.238281 6.398438 29.171875 C 5.902344 28.90625 5.578125 28.648438 5.371094 28.335938 C 5.203125 28.085938 5.140625 27.882812 5.125 27.535156 C 5.117188 27.285156 5.132812 27.085938 5.203125 26.519531 C 5.242188 26.183594 5.25 26.082031 5.25 25.746094 C 5.253906 25.425781 5.246094 25.34375 5.226562 25.257812 C 5.144531 24.949219 5.015625 24.757812 4.792969 24.621094 C 4.664062 24.539062 4.195312 24.339844 3.515625 24.070312 C 2.648438 23.730469 2.019531 23.425781 1.5625 23.121094 C 1.265625 22.925781 0.910156 22.613281 0.710938 22.371094 C 0.246094 21.804688 0.015625 21.171875 0.015625 20.453125 C 0.015625 20.066406 0.0585938 19.753906 0.253906 18.808594 C 0.445312 17.875 0.488281 17.585938 0.503906 17.132812 C 0.515625 16.804688 0.5 16.644531 0.398438 16.070312 C 0.226562 15.054688 0.128906 14.265625 0.0664062 13.367188 C 0.0273438 12.8125 0.0273438 11.335938 0.0664062 10.859375 C 0.136719 9.976562 0.238281 9.324219 0.402344 8.703125 C 0.835938 7.03125 1.75 5.226562 2.753906 4.046875 C 3.226562 3.492188 4.054688 2.789062 4.859375 2.261719 C 6.5 1.183594 8.472656 0.464844 10.574219 0.175781 C 11.363281 0.0664062 11.820312 0.03125 12.683594 0.0195312 C 13.6875 0.0078125 14.589844 0.0664062 15.535156 0.214844 C 18.046875 0.605469 20.28125 1.527344 22.019531 2.902344 C 22.875 3.570312 23.386719 4.128906 23.957031 5.003906 C 24.648438 6.066406 25.25 7.402344 25.570312 8.59375 C 26.101562 10.574219 26.109375 13.265625 25.589844 16.121094 L 25.523438 16.476562 L 25.523438 16.855469 C 25.527344 17.339844 25.550781 17.523438 25.769531 18.679688 C 25.917969 19.449219 25.964844 19.8125 25.972656 20.28125 C 25.984375 20.679688 25.964844 20.863281 25.898438 21.117188 C 25.691406 21.925781 25.097656 22.625 24.054688 23.277344 C 23.761719 23.460938 23.589844 23.554688 23.003906 23.851562 C 22.171875 24.269531 21.953125 24.40625 21.632812 24.722656 C 21.347656 25 21.167969 25.292969 21.066406 25.648438 C 20.992188 25.902344 20.988281 25.9375 20.988281 26.746094 C 20.984375 27.566406 20.984375 27.578125 20.902344 27.855469 C 20.859375 27.992188 20.714844 28.273438 20.601562 28.441406 C 20.316406 28.855469 19.914062 29.179688 19.429688 29.382812 C 19.230469 29.464844 18.941406 29.550781 18.742188 29.585938 C 18.582031 29.613281 18.058594 29.640625 17.9375 29.632812 C 17.832031 29.625 17.667969 29.664062 17.546875 29.722656 C 17.464844 29.761719 17.277344 29.898438 17.269531 29.925781 C 17.265625 29.933594 17.203125 30.003906 17.125 30.085938 C 16.824219 30.40625 16.46875 30.652344 16.066406 30.8125 C 15.824219 30.910156 15.644531 30.953125 15.328125 30.988281 C 15.300781 30.992188 17.691406 30.996094 20.636719 31 L 25.992188 31 L 25.992188 0 L 0 0 Z M 0 15.5 "/>
<path style=" stroke:none;fill-rule:nonzero;fill:rgb(0%,0%,0%);fill-opacity:1;" d="M 6.515625 12.035156 C 5.515625 12.140625 4.609375 12.695312 4.023438 13.5625 C 3.671875 14.078125 3.464844 14.632812 3.382812 15.257812 C 3.355469 15.453125 3.355469 15.972656 3.378906 16.164062 C 3.484375 16.960938 3.816406 17.652344 4.351562 18.179688 C 4.824219 18.644531 5.378906 18.925781 6.035156 19.035156 C 6.253906 19.070312 6.734375 19.070312 6.957031 19.035156 C 7.667969 18.921875 8.292969 18.601562 8.8125 18.089844 C 9.128906 17.78125 9.335938 17.492188 9.527344 17.113281 C 9.667969 16.832031 9.75 16.625 9.820312 16.355469 C 10.03125 15.546875 9.984375 14.753906 9.679688 13.996094 C 9.359375 13.210938 8.738281 12.574219 7.992188 12.261719 C 7.519531 12.066406 7 11.984375 6.515625 12.035156 Z M 6.515625 12.035156 "/>
<path style=" stroke:none;fill-rule:nonzero;fill:rgb(0%,0%,0%);fill-opacity:1;" d="M 18.886719 12.035156 C 18.210938 12.101562 17.550781 12.414062 17.0625 12.894531 C 15.65625 14.277344 15.730469 16.695312 17.21875 18.125 C 17.90625 18.78125 18.847656 19.132812 19.738281 19.058594 C 21.207031 18.9375 22.351562 17.828125 22.601562 16.28125 C 22.636719 16.070312 22.648438 15.546875 22.625 15.332031 C 22.5625 14.734375 22.375 14.191406 22.070312 13.695312 C 21.789062 13.242188 21.351562 12.796875 20.910156 12.523438 C 20.289062 12.140625 19.574219 11.96875 18.886719 12.035156 Z M 18.886719 12.035156 "/>
<path style=" stroke:none;fill-rule:nonzero;fill:rgb(0%,0%,0%);fill-opacity:1;" d="M 12.824219 17.417969 C 12.5 17.492188 12.148438 17.820312 11.832031 18.339844 C 11.4375 18.980469 11.078125 19.992188 10.945312 20.820312 C 10.867188 21.300781 10.890625 21.832031 10.996094 22.144531 C 11.082031 22.390625 11.199219 22.539062 11.378906 22.625 L 11.496094 22.683594 L 11.703125 22.683594 C 11.90625 22.683594 11.917969 22.679688 12.082031 22.625 C 12.351562 22.53125 12.625 22.386719 12.886719 22.195312 L 13 22.113281 L 13.148438 22.210938 C 13.425781 22.390625 13.675781 22.507812 13.917969 22.578125 C 14.664062 22.789062 15.0625 22.429688 15.097656 21.503906 C 15.113281 21.117188 15.042969 20.632812 14.886719 20.078125 C 14.574219 18.949219 14.082031 18.027344 13.585938 17.632812 C 13.328125 17.429688 13.074219 17.355469 12.824219 17.417969 Z M 12.824219 17.417969 "/>
<path style=" stroke:none;fill-rule:nonzero;fill:rgb(0%,0%,0%);fill-opacity:1;" d="M 12.851562 30.546875 C 12.648438 30.570312 12.445312 30.621094 12.234375 30.703125 C 11.847656 30.859375 11.507812 30.949219 11.191406 30.984375 C 11.117188 30.992188 11.871094 30.996094 13.003906 30.996094 C 14.070312 30.996094 14.914062 30.992188 14.882812 30.988281 C 14.527344 30.960938 14.085938 30.839844 13.6875 30.667969 C 13.59375 30.625 13.464844 30.582031 13.40625 30.570312 C 13.261719 30.539062 13.003906 30.527344 12.851562 30.546875 Z M 12.851562 30.546875 "/>
</g>
</svg>
